<svg xmlns="http://www.w3.org/2000/svg" xmlns:xlink="http://www.w3.org/1999/xlink" width="100" height="100" viewBox="0 0 100 100">
  <defs>
    <clipPath id="clip-Custom_Size_10">
      <rect width="100" height="100"/>
    </clipPath>
  </defs>
  <g id="Custom_Size_10" data-name="Custom Size – 10" clip-path="url(#clip-Custom_Size_10)">
    <g id="Union_1" data-name="Union 1" transform="translate(11)" fill="none">
      <path d="M0,100V12.245H11.29V6.123h19.5V0H47.21V6.123h19.5v6.123H78V100Z" stroke="none"/>
      <path d="M 72.99998474121094 95 L 72.99998474121094 17.24549102783203 L 61.71078872680664 17.24549102783203 L 61.71078872680664 11.12276363372803 L 42.21009826660156 11.12276363372803 L 42.21009826660156 5 L 35.78987884521484 5 L 35.78987884521484 11.12276363372803 L 16.29011535644531 11.12276363372803 L 16.29011535644531 17.24549102783203 L 4.999988555908203 17.24549102783203 L 4.999988555908203 95 L 72.99998474121094 95 M 77.99998474121094 100 L -1.1444091796875e-05 100 L -1.1444091796875e-05 12.24549102783203 L 11.29011535644531 12.24549102783203 L 11.29011535644531 6.122763633728027 L 30.78987884521484 6.122763633728027 L 30.78987884521484 0 L 47.21009826660156 0 L 47.21009826660156 6.122763633728027 L 66.71078491210938 6.122763633728027 L 66.71078491210938 12.24549102783203 L 77.99998474121094 12.24549102783203 L 77.99998474121094 100 Z" stroke="none" fill="#000"/>
    </g>
    <line id="Line_1" data-name="Line 1" x2="55.102" transform="translate(22.735 35.204)" fill="none" stroke="#000" stroke-width="5"/>
    <line id="Line_5" data-name="Line 5" x2="55.102" transform="translate(22.735 14.796)" fill="none" stroke="#000" stroke-width="5"/>
    <line id="Line_2" data-name="Line 2" x2="55.102" transform="translate(22.735 49.49)" fill="none" stroke="#000" stroke-width="5"/>
    <line id="Line_3" data-name="Line 3" x2="55.102" transform="translate(22.735 64.796)" fill="none" stroke="#000" stroke-width="5"/>
    <line id="Line_4" data-name="Line 4" x2="55.102" transform="translate(22.735 79.082)" fill="none" stroke="#000" stroke-width="5"/>
  </g>
</svg>
