<svg xmlns="http://www.w3.org/2000/svg" xmlns:xlink="http://www.w3.org/1999/xlink" width="100" height="100" viewBox="0 0 100 100">
  <defs>
    <clipPath id="clip-Custom_Size_13">
      <rect width="100" height="100"/>
    </clipPath>
  </defs>
  <g id="Custom_Size_13" data-name="Custom Size – 13" clip-path="url(#clip-Custom_Size_13)">
    <path id="Exclusion_1" data-name="Exclusion 1" d="M-639.5-435.744h-73V-518.5h73v82.755Zm-63.765-20.92v5h55.1v-5Zm0-14.286h0v5h55.1v-5Zm0-15.306h0v5h55.1v-5Zm0-14.286h0v5h55.1v-5Z" transform="translate(726 533.245)"/>
    <g id="Union_2" data-name="Union 2" transform="translate(737.29 521)" fill="none">
      <path d="M-682.158-498.551v-1.02h-10.264v1.02H-715v-16.326h19.5V-521h16.421v6.123h19.5v16.326Z" stroke="none"/>
      <path d="M -664.5794067382812 -503.5514221191406 L -664.5794067382812 -509.87744140625 L -684.0787963867188 -509.87744140625 L -684.0787963867188 -516.0001220703125 L -690.500244140625 -516.0001220703125 L -690.500244140625 -509.87744140625 L -709.9996337890625 -509.87744140625 L -709.9996337890625 -503.5514221191406 L -697.4213256835938 -503.5514221191406 L -697.4213256835938 -504.5711059570312 L -677.15771484375 -504.5711059570312 L -677.15771484375 -503.5514221191406 L -664.5794067382812 -503.5514221191406 M -659.5794067382812 -498.5514221191406 L -682.15771484375 -498.5514221191406 L -682.15771484375 -499.5711059570312 L -692.4213256835938 -499.5711059570312 L -692.4213256835938 -498.5514221191406 L -714.9996337890625 -498.5514221191406 L -714.9996337890625 -514.87744140625 L -695.500244140625 -514.87744140625 L -695.500244140625 -521.0001220703125 L -679.0787963867188 -521.0001220703125 L -679.0787963867188 -514.87744140625 L -659.5794067382812 -514.87744140625 L -659.5794067382812 -498.5514221191406 Z" stroke="none" fill="#000"/>
    </g>
    <line id="Line_5" data-name="Line 5" x2="55.102" transform="translate(22.735 14.796)" fill="none" stroke="#000" stroke-width="5"/>
    <g id="Rectangle_1" data-name="Rectangle 1" transform="translate(11 12.245)" fill="none" stroke="#000" stroke-width="5">
      <rect width="77.999" height="87.755" stroke="none"/>
      <rect x="2.5" y="2.5" width="72.999" height="82.755" fill="none"/>
    </g>
  </g>
</svg>
