<svg xmlns="http://www.w3.org/2000/svg" xmlns:xlink="http://www.w3.org/1999/xlink" width="100" height="100" viewBox="0 0 100 100">
  <defs>
    <clipPath id="clip-add1">
      <rect width="100" height="100"/>
    </clipPath>
  </defs>
  <g id="add1" clip-path="url(#clip-add1)">
    <g id="Union_4" data-name="Union 4" transform="translate(3227 150)" fill="none">
      <path d="M-3188-50V-89h-39v-22h39v-39h22v39h39v22h-39v39Z" stroke="none"/>
      <path d="M -3171.000244140625 -55.00040435791016 L -3171.000244140625 -94.00009918212891 L -3131.999755859375 -94.00009918212891 L -3131.999755859375 -105.9996948242188 L -3171.000244140625 -105.9996948242188 L -3171.000244140625 -145.0002899169922 L -3182.999755859375 -145.0002899169922 L -3182.999755859375 -105.9996948242188 L -3221.99951171875 -105.9996948242188 L -3221.99951171875 -94.00009918212891 L -3182.999755859375 -94.00009918212891 L -3182.999755859375 -55.00040435791016 L -3171.000244140625 -55.00040435791016 M -3166.000244140625 -50.00040435791016 L -3187.999755859375 -50.00040435791016 L -3187.999755859375 -89.00009918212891 L -3226.99951171875 -89.00009918212891 L -3226.99951171875 -110.9996948242188 L -3187.999755859375 -110.9996948242188 L -3187.999755859375 -150.0002899169922 L -3166.000244140625 -150.0002899169922 L -3166.000244140625 -110.9996948242188 L -3126.999755859375 -110.9996948242188 L -3126.999755859375 -89.00009918212891 L -3166.000244140625 -89.00009918212891 L -3166.000244140625 -50.00040435791016 Z" stroke="none" fill="#000"/>
    </g>
  </g>
</svg>
