<svg xmlns="http://www.w3.org/2000/svg" xmlns:xlink="http://www.w3.org/1999/xlink" width="100" height="300" viewBox="0 0 100 300">
  <defs>
    <clipPath id="clip-flower2">
      <rect width="100" height="300"/>
    </clipPath>
  </defs>
  <g id="flower2" clip-path="url(#clip-flower2)">
    <path id="Path_37" data-name="Path 37" d="M3.638,0S7.277,2.31,7.277,5.16s-3.638,5.16-3.638,5.16S0,8.01,0,5.16,3.638,0,3.638,0Z" transform="translate(64.179 263.924) rotate(60)" fill="#14b420"/>
    <rect id="Rectangle_41" data-name="Rectangle 41" width="18" height="81.583" transform="translate(41 215.417)" fill="#14cc22"/>
    <path id="Path_61" data-name="Path 61" d="M7.044,34.688s7.044-3.923,7.043-17.511S8.488.5,8.488.5,0,7.506,0,17.177,7.044,34.688,7.044,34.688Z" transform="translate(47.989 225.297) rotate(-120)" fill="#14b420"/>
    <path id="Path_38" data-name="Path 38" d="M7.044,0s7.044,3.923,7.043,17.511S7.043,35.021,7.043,35.021,0,27.182,0,17.511,7.044,0,7.044,0Z" transform="translate(24.971 207.953) rotate(-60)" fill="#14cc22"/>
    <path id="Path_63" data-name="Path 63" d="M4457.528,296.437c-18.6,0-33.864,1.042-32.819-4.873s12.813-.324,15.664-6.9,9.878,2.361,15.4-3.371,9.723,2.22,16.741,2.15,11.248-2.213,13.047,1.221,11.361,6.254,5.769,8.909S4476.125,296.437,4457.528,296.437Z" transform="translate(-4408.945 3.563)" fill="#3d2501"/>
  </g>
</svg>
