<svg xmlns="http://www.w3.org/2000/svg" xmlns:xlink="http://www.w3.org/1999/xlink" width="100" height="300" viewBox="0 0 100 300">
  <defs>
    <clipPath id="clip-flower4">
      <rect width="100" height="300"/>
    </clipPath>
  </defs>
  <g id="flower4" clip-path="url(#clip-flower4)">
    <path id="Path_51" data-name="Path 51" d="M5099.121.745c-15.506,0-22.466-48.464-17.275-52.7s7.238,1.165,9.51,1.165,2.3-7.377,7.765-7.377,6.45,7.377,8.774,7.377,3.766-5.436,9.749-1.165S5114.627.745,5099.121.745Z" transform="translate(-5049.645 153.917)" fill="#eb7c80"/>
    <path id="Path_60" data-name="Path 60" d="M5046.043,102.55c-8.142-12.507-11.6-28.979-6.831-32.186,7.98-5.362,11.056.477,16.971-1.368s5.708-8.673,12.208-8.563,7.734,6.874,12.664,8.563,8.667-3.767,16.309,1.368c4.157,2.793,1.763,16.7-4.979,29.043C5086.979,109.308,5051.752,111.322,5046.043,102.55Z" transform="translate(-5018.235 51.716)" fill="#fca5a8"/>
    <path id="Path_39" data-name="Path 39" d="M6.665,0S13.33,4.589,13.33,10.25,6.665,20.5,6.665,20.5,0,15.911,0,10.25,6.665,0,6.665,0Z" transform="translate(22.335 209.513) rotate(-60)" fill="#14b420"/>
    <path id="Path_37" data-name="Path 37" d="M12.211,0S24.422,7.754,24.422,17.318,12.211,34.636,12.211,34.636,0,26.882,0,17.318,12.211,0,12.211,0Z" transform="translate(78.951 244.342) rotate(60)" fill="#14b420"/>
    <rect id="Rectangle_41" data-name="Rectangle 41" width="18" height="135" transform="translate(41 160)" fill="#14cc22"/>
    <path id="Path_61" data-name="Path 61" d="M10.554,52.474S21.107,46.6,21.107,26.237,11.42.5,11.42.5,0,11.747,0,26.237,10.554,52.474,10.554,52.474Z" transform="translate(46.554 170.449) rotate(-120)" fill="#14b420"/>
    <path id="Path_38" data-name="Path 38" d="M10.554,0S21.107,5.878,21.107,26.237,10.554,52.474,10.554,52.474,0,40.727,0,26.237,10.554,0,10.554,0Z" transform="translate(8.003 144.212) rotate(-60)" fill="#14cc22"/>
    <path id="Path_63" data-name="Path 63" d="M4442.185,296.437c-9.916,0-18.057,1.042-17.5-4.873s5.743-4.163,8.232-7.248,6.093,1.475,9.771,1.269,7.745-2.216,9.868-1,2.064,2.886,4.009,4.093,6.628,2.235,3.646,4.89S4452.1,296.437,4442.185,296.437Z" transform="translate(-4392.998 3.563)" fill="#3d2501"/>
  </g>
</svg>
