<svg xmlns="http://www.w3.org/2000/svg" xmlns:xlink="http://www.w3.org/1999/xlink" width="100" height="300" viewBox="0 0 100 300">
  <defs>
    <clipPath id="clip-flower5">
      <rect width="100" height="300"/>
    </clipPath>
  </defs>
  <g id="flower5" clip-path="url(#clip-flower5)">
    <path id="Path_51" data-name="Path 51" d="M5106.942.745c-21.9,0-31.727-48.464-24.4-52.7s10.221,1.165,13.429,1.165,3.255-7.377,10.966-7.377,9.108,7.377,12.39,7.377,5.318-5.436,13.767-1.165S5128.84.745,5106.942.745Z" transform="translate(-5057.757 99.917)" fill="#eb7c80"/>
    <path id="Path_60" data-name="Path 60" d="M5073.525,118.184c-25.74,0-43.245-42.457-33.958-47.819s12.866.477,19.75-1.368,6.643-8.673,14.208-8.563,9,6.874,14.737,8.563,10.086-3.767,18.979,1.368S5099.267,118.184,5073.525,118.184Z" transform="translate(-5023.343 -7.284)" fill="#fca5a8"/>
    <path id="Path_39" data-name="Path 39" d="M11.953,0S23.907,8.23,23.907,18.382,11.953,36.764,11.953,36.764,0,28.534,0,18.382,11.953,0,11.953,0Z" transform="translate(8.605 155.96) rotate(-60)" fill="#14b420"/>
    <path id="Path_37" data-name="Path 37" d="M12.211,0S24.422,7.754,24.422,17.318,12.211,34.636,12.211,34.636,0,26.882,0,17.318,12.211,0,12.211,0Z" transform="translate(78.951 194.342) rotate(60)" fill="#14b420"/>
    <rect id="Rectangle_41" data-name="Rectangle 41" width="18" height="187" transform="translate(41 110)" fill="#14cc22"/>
    <path id="Path_61" data-name="Path 61" d="M10.554,52.474S21.107,46.6,21.107,26.237,11.42.5,11.42.5,0,11.747,0,26.237,10.554,52.474,10.554,52.474Z" transform="translate(46.554 120.449) rotate(-120)" fill="#14b420"/>
    <path id="Path_38" data-name="Path 38" d="M10.554,0S21.107,5.878,21.107,26.237,10.554,52.474,10.554,52.474,0,40.727,0,26.237,10.554,0,10.554,0Z" transform="translate(8.003 94.212) rotate(-60)" fill="#14cc22"/>
    <path id="Path_63" data-name="Path 63" d="M4437.684,296.437c-7.369,0-14.46.447-14.006-3.873s3.57-2.379,5.42-5.464,8.229.206,10.964,0,4.1-1.216,5.673,0,.809,1.1,2.253,2.306,5.309,2.508,3.093,5.163S4445.053,296.437,4437.684,296.437Z" transform="translate(-4388.308 3.563)" fill="#3d2501"/>
  </g>
</svg>
