<svg xmlns="http://www.w3.org/2000/svg" xmlns:xlink="http://www.w3.org/1999/xlink" width="100" height="300" viewBox="0 0 100 300">
  <defs>
    <clipPath id="clip-flower1">
      <rect width="100" height="300"/>
    </clipPath>
  </defs>
  <g id="flower1" clip-path="url(#clip-flower1)">
    <rect id="Rectangle_41" data-name="Rectangle 41" width="18" height="27" transform="translate(41 269)" fill="#14cc22"/>
    <path id="Path_37" data-name="Path 37" d="M12.211,0S24.422,7.754,24.422,17.318,12.211,34.636,12.211,34.636,0,26.882,0,17.318,12.211,0,12.211,0Z" transform="translate(78.951 240.342) rotate(60)" fill="#14b420"/>
    <path id="Path_38" data-name="Path 38" d="M17.061,0S34.122,11.747,34.122,26.237,17.061,52.474,17.061,52.474,0,40.727,0,26.237,17.061,0,17.061,0Z" transform="translate(5 258.361) rotate(-60)" fill="#14cc22"/>
    <path id="Path_62" data-name="Path 62" d="M4464,296.437c-22.258,0-40.532,1.042-39.281-4.873s5.037,3.039,8.448-3.541,7.86-1.977,11.813-5.585,8.875,5.332,15.728-3.15,10.639,3.965,16.086,5.371,6.519,1.333,10.414,0,12.725-6.756,13.247-1.221,10.7,7.476,4.007,10.131S4486.258,296.437,4464,296.437Z" transform="translate(-4415.576 3.563)" fill="#3d2501"/>
  </g>
</svg>
