<?xml version="1.0" encoding="UTF-8"?>
<svg id="affirmations1" xmlns="http://www.w3.org/2000/svg" viewBox="0 0 300 300">
  <g id="affirmations1Icon">
    <path d="M149.38,231.88l.15-.73-.03-.02-.16,.75c-7.71-1.63-27.48-6.9-44.35-20.59-17.67-14.33-26.63-33.08-26.63-55.74,0-30.19,14.24-48.52,38.08-49.04,12.74-.28,22.88,5.56,29.42,16.87,1.77,3.06,3.07,6.18,4.03,9.01,.96-2.84,2.26-5.96,4.03-9.01,6.54-11.31,16.69-17.15,29.42-16.87,23.85,.52,38.08,18.85,38.08,49.04,0,22.65-8.96,41.41-26.63,55.74-16.88,13.68-36.64,18.96-44.35,20.59h0s0,0,0,0h0s-.54-.42-.54-.42l-.54,.43Zm.91-.73l.14,.62-.13-.63h0Zm-32.97-119.65c-.25,0-.51,0-.76,0-20.79,.45-33.19,16.92-33.19,44.04,0,53.75,54.32,68.66,66.54,71.33,12.22-2.67,66.53-17.58,66.53-71.33,0-27.13-12.41-43.59-33.19-44.04-10.91-.24-19.33,4.6-24.98,14.37-4.5,7.78-5.69,16.05-5.88,17.63h-4.96c-.19-1.58-1.38-9.84-5.88-17.63-5.52-9.54-13.66-14.38-24.22-14.38Z"/>
    <path d="M99.11,169.75l-.93-2.32c-.26-.65-6.31-16.13,.02-30.91l.98-2.3,4.6,1.97-.98,2.3c-5.53,12.9-.03,26.95,.02,27.09l.93,2.32-4.64,1.86Z"/>
  </g>
</svg>