<?xml version="1.0" encoding="UTF-8"?>
<svg id="focus2" xmlns="http://www.w3.org/2000/svg" viewBox="0 0 300 300">
  <defs>
    <style>
      .cls-1 {
        font-family: ArialMT, Arial;
        font-size: 48px;
      }
    </style>
  </defs>
  <text id="focus2Text" class="cls-1" transform="translate(79.82 95.25) rotate(-36.88)"><tspan x="0" y="0">F</tspan></text>
  <text class="cls-1" transform="translate(100.95 78.16) rotate(-18.76)"><tspan x="0" y="0">O</tspan></text>
  <text class="cls-1" transform="translate(133.89 66.73) rotate(.93)"><tspan x="0" y="0">C</tspan></text>
  <text class="cls-1" transform="translate(166.28 66.79) rotate(19.54)"><tspan x="0" y="0">U</tspan></text>
  <text class="cls-1" transform="translate(196.81 77.47) rotate(37.64)"><tspan x="0" y="0">S</tspan></text>
  <g id="focus2Icon">
    <path d="M152.5,163.46h-5v-21.73c-16.19-1.7-26.93-7.06-31.93-15.94-6.95-12.34,0-26.56,.31-27.16l.5-1.01,1.09-.29c8.52-2.27,18.4-.37,25.17,4.83,4.5,3.46,9.86,10.06,9.86,21.89v13.09l.19,.02-.19,2.39v23.91Zm-32.6-61.56c-1.3,3.18-4.66,13.14,.04,21.47,4.12,7.29,13.39,11.77,27.56,13.33v-12.64c0-7.75-2.73-13.94-7.91-17.92-5.94-4.57-13.94-5.41-19.69-4.23Z"/>
    <path d="M158.74,154.77c-1.97,0-4.06-.12-6.25-.36v.18h-5v-2.5c0-.82,.13-20.23,11.52-27.19,6.08-3.72,13.98-3.14,23.47,1.73l1.09,.56,.23,1.21c.09,.47,2.07,11.66-5.32,19.43-4.39,4.62-11.01,6.94-19.75,6.94Zm-6.1-5.37c10.42,1.2,17.88-.48,22.19-4.98,4.42-4.63,4.41-11.24,4.19-13.91-7.28-3.49-13.12-3.93-17.39-1.33-6.83,4.17-8.55,15.12-8.99,20.23Z"/>
    <path d="M191.52,231H108.02l-6.58-57h95.56l-5.48,57Zm-79.04-5h74.5l4.52-47H107.05l5.42,47Z"/>
    <path d="M204.25,179H94.25v-19h110v19Zm-105-5h100v-9H99.25v9Z"/>
    <rect x="120.84" y="189.46" width="5" height="25.61" transform="translate(-21.93 15.13) rotate(-6.45)"/>
  </g>
</svg>