<?xml version="1.0" encoding="UTF-8"?>
<svg id="home2" xmlns="http://www.w3.org/2000/svg" viewBox="0 0 300 300">
  <defs>
    <style>
      .cls-1 {
        font-family: ArialMT, Arial;
        font-size: 48px;
      }
    </style>
  </defs>
  <text id="home2Text" class="cls-1" transform="translate(87.74 87.49) rotate(-28.92)"><tspan x="0" y="0">H</tspan></text>
  <text class="cls-1" transform="translate(115.69 71.31) rotate(-9.31)"><tspan x="0" y="0">O</tspan></text>
  <text class="cls-1" transform="translate(150 64.97) rotate(11.53)"><tspan x="0" y="0">M</tspan></text>
  <text class="cls-1" transform="translate(186.67 72.72) rotate(31.15)"><tspan x="0" y="0">E</tspan></text>
  <g id="home2Icon">
    <path d="M217.5,221.94h-50.55v-51.81h-34.04v51.81h-50.55v-85.96l67.57-49.79,67.57,49.79v85.96Zm-45.55-5h40.55v-78.43l-62.57-46.1-62.57,46.1v78.43h40.55v-51.81h44.04v51.81Z"/>
    <polygon points="103.2 156.87 98.2 156.87 98.2 143.74 111.77 133.69 114.75 137.7 103.2 146.26 103.2 156.87"/>
  </g>
</svg>