<?xml version="1.0" encoding="UTF-8"?>
<svg id="write2" xmlns="http://www.w3.org/2000/svg" viewBox="0 0 300 300">
  <defs>
    <style>
      .cls-1 {
        font-family: ArialMT, Arial;
        font-size: 48px;
      }
    </style>
  </defs>
  <text id="write2Text" class="cls-1" transform="translate(83.09 90.06) rotate(-28.92)"><tspan x="0" y="0">W</tspan></text>
  <text class="cls-1" transform="translate(120.56 69.92) rotate(-7.14)"><tspan x="0" y="0">R</tspan></text>
  <text class="cls-1" transform="translate(153.22 66.83) rotate(5.73)"><tspan x="0" y="0">I</tspan></text>
  <text class="cls-1" transform="translate(165.11 67.05) rotate(17.34)"><tspan x="0" y="0">T</tspan></text>
  <text class="cls-1" transform="translate(191.22 74.67) rotate(34.02)"><tspan x="0" y="0">E</tspan></text>
  <g id="write2Icon">
    <path d="M149.5,226.82l-.86-.31c-9.73-3.55-19.92-6.05-30.27-7.44-10.31-1.38-20.79-1.66-31.17-.83l-2.7,.22V112.89l1.81-.52c10.22-2.92,21.2-3.83,31.77-2.6,11.1,1.28,21.93,4.91,31.42,10.5,9.49-5.6,20.32-9.22,31.42-10.5l.29,2.48-.29-2.48c10.57-1.22,21.55-.32,31.77,2.6l1.81,.52v105.56l-2.7-.22c-10.37-.83-20.86-.56-31.17,.83-10.36,1.39-20.54,3.89-30.27,7.44l-.86,.31Zm-50.58-14.05c6.73,0,13.46,.45,20.12,1.34,10.41,1.4,20.65,3.88,30.46,7.39,9.81-3.51,20.05-6,30.46-7.39,9.77-1.31,19.69-1.66,29.54-1.05V116.68c-9.07-2.35-18.71-3.02-28.01-1.95-10.89,1.26-21.5,4.92-30.68,10.58l-1.31,.81-1.31-.81c-9.18-5.66-19.79-9.32-30.68-10.58-9.29-1.07-18.94-.4-28.01,1.95v96.37c3.13-.2,6.28-.29,9.42-.29Z"/>
    <rect x="99" y="128" width="5" height="24"/>
    <rect x="147" y="121" width="5" height="105"/>
  </g>
</svg>